# xmcd
#
# Track frame offsets:
#	150
#	13638
#	26045
#	39825
#	51920
#	65340
#	79776
#	93217
#	105906
#	117471
#	129278
#	140695
#	152373
#	165359
#	177911
#	191592
#	204835
#	216950
#	229712
#	244012
#	256522
#	269422
#	282946
#	296212
#	308066
#	320222
#	333849
#
# Disc length: 4632 seconds
#
# Revision: 0
# Processed by: cddbd v1.5.2PL0 Copyright (c) Steve Scherf et al.
# Submitted via: dBpowerAMP V4.0
#
DISCID=7112161b
DTITLE=Lightnin' Hopkins - New York Boogie
DYEAR=1900
DGENRE=Blues
TTITLE0=Hello Central
TTITLE1=Coffee Blues
TTITLE2=Long Way From Texas
TTITLE3=Gotta Move
TTITLE4=New Shot
TTITLE5=Tell Me Boogie
TTITLE6=Prayin' Ground Blues
TTITLE7=New York Boogie
TTITLE8=My Heart To Weep
TTITLE9=Tap Dance Boogie
TTITLE10=I Wonder Why
TTITLE11=Buck Dance Boogie
TTITLE12=Home In The Woods
TTITLE13=Lightnin's Gone Again
TTITLE14=Dirty House Blues
TTITLE15=Baid Headed Woman
TTITLE16=Everything Happens To Me
TTITLE17=Freight Train
TTITLE18=I've Been A Bad Woman
TTITLE19=New Worried Life Blues
TTITLE20=Broken Hearted Blues
TTITLE21=One Kind Of Favor
TTITLE22=Down To The River
TTITLE23=I'm Begging You
TTITLE24=Contrary Mary
TTITLE25=Everybody's Down On Me
TTITLE26=You Do Too
EXTD=
EXTT0=
EXTT1=
EXTT2=
EXTT3=
EXTT4=
EXTT5=
EXTT6=
EXTT7=
EXTT8=
EXTT9=
EXTT10=
EXTT11=
EXTT12=
EXTT13=
EXTT14=
EXTT15=
EXTT16=
EXTT17=
EXTT18=
EXTT19=
EXTT20=
EXTT21=
EXTT22=
EXTT23=
EXTT24=
EXTT25=
EXTT26=
PLAYORDER=
